<svg width="1400" height="1221" viewBox="0 0 1400 1221" fill="none" xmlns="http://www.w3.org/2000/svg">
<path d="M0 93L525 440L1400 87.5V1143.5L496 821L0 1136V93Z" fill="white"/>
<path d="M1643.11 0.731006C1640.36 -0.243671 1637.35 -0.243668 1634.61 0.73101L625.13 407.698C620.247 409.433 617 413.947 617 419L616.142 850.427C616.142 855.804 619.811 860.527 625.13 862L1634.61 1220.37C1636.83 1220.37 1639.18 1220.37 1641.39 1220.37L2674.01 950.798C2679.33 949.326 2682.99 944.602 2682.99 939.226V378.547C2682.99 373.494 2679.75 368.98 2674.86 367.245L1643.11 0.731006Z" fill="#031649"/>
</svg>
