<svg width="86" height="86" viewBox="0 0 86 86" fill="none" xmlns="http://www.w3.org/2000/svg">
<path d="M21.0645 68.8065L23.6374 56.0154M39.129 68.8065L36.5561 56.0154M23.6374 56.0154L27.2936 37.8387H32.8998L36.5561 56.0154M23.6374 56.0154H36.5561" stroke="url(#paint0_linear_94_23)" stroke-width="5"/>
<path d="M64.2903 33.9677V53.3226M64.2903 53.3226V65.5806H50.7419V53.3226H64.2903Z" stroke="url(#paint1_linear_94_23)" stroke-width="5"/>
<path d="M8.80645 3H24.2903M76.5484 3H61.0645M24.2903 3V21.0645M24.2903 3H61.0645M24.2903 21.0645H3V83H83V21.0645H61.0645M24.2903 21.0645H61.0645M61.0645 21.0645V3" stroke="url(#paint2_linear_94_23)" stroke-width="6"/>
<defs>
<linearGradient id="paint0_linear_94_23" x1="30.0967" y1="68.8065" x2="3.62642" y2="53.9311" gradientUnits="userSpaceOnUse">
<stop stop-color="#3959AE"/>
<stop offset="1" stop-color="#00195E"/>
</linearGradient>
<linearGradient id="paint1_linear_94_23" x1="57.5161" y1="65.5806" x2="30.4214" y2="72.3854" gradientUnits="userSpaceOnUse">
<stop stop-color="#3959AE"/>
<stop offset="1" stop-color="#00195E"/>
</linearGradient>
<linearGradient id="paint2_linear_94_23" x1="43" y1="83" x2="-0.975083" y2="40.4806" gradientUnits="userSpaceOnUse">
<stop stop-color="#3959AE"/>
<stop offset="1" stop-color="#00195E"/>
</linearGradient>
</defs>
</svg>
