<svg width="57" height="64" viewBox="0 0 57 64" fill="none" xmlns="http://www.w3.org/2000/svg">
<path fill-rule="evenodd" clip-rule="evenodd" d="M28.5727 0.946655L42.6309 8.77593L56.6893 16.6052V32.2636V47.9219L42.6309 55.7512L28.5727 63.5804L14.5145 55.7512L0.456055 47.9219V32.2636V16.6052L14.5145 8.77593L28.5727 0.946655ZM15.7125 42.6639V21.4166L23.5007 16.9503V28.5182H33.2443V16.9503L41.0387 21.2696V42.6448L33.2443 47.3217V35.9327H23.5007V47.3217L15.7125 42.6639ZM28.5727 9.65043L38.7237 15.3038L48.8749 20.9571V32.2636V43.57L38.7237 49.2233L28.5727 54.8767L18.4217 49.2233L8.27045 43.57V32.2636V20.9571L18.4217 15.3038L28.5727 9.65043Z" fill="white"/>
</svg>
